# xmcd
#
# Track frame offsets:
#	182
#	16275
#	34262
#	61950
#	88100
#	106075
#
# Disc length: 1760 seconds
#
# Revision: 0
# Processed by: cddbd v1.5.2PL0 Copyright (c) Steve Scherf et al.
# Submitted via: EasyCDDAExtractor 12.0.4.1
#
DISCID=4206de06
DTITLE=G.E.M. - I Feel You Tonight
DYEAR=1994
DGENRE=Dance
TTITLE0=Yo Te Siento Así (Short Batuspanish Version) 
TTITLE1=I Feel You Tonight (Short One Groove Version) 
TTITLE2=Yo Te Siento Así (Batuspanish Version) 
TTITLE3=I Feel You Tonight (One Groove Version) 
TTITLE4=I Feel You Tonight (Pop Easy Listening Version) 
TTITLE5=I Feel You Tonight (Ci Ci Version) 
EXTD=
EXTT0=
EXTT1=
EXTT2=
EXTT3=
EXTT4=
EXTT5=
PLAYORDER=
